<svg class="icon" viewBox="0 0 1024 1024" xmlns="http://www.w3.org/2000/svg" width="400" height="400"><path d="M341.333 500.541a170.667 170.667 0 1 0 341.334 0 170.667 170.667 0 1 0-341.334 0z" fill="#FFCD00"/><path d="M512 478.842c-45.349 0-82.164-40.96-82.164-91.185s36.815-91.185 82.164-91.185 82.164 40.96 82.164 91.185-36.815 91.185-82.164 91.185zm0-157.745c-31.939 0-57.783 29.989-57.783 66.804s26.088 66.804 57.783 66.804 57.783-29.989 57.783-66.804-25.844-66.804-57.783-66.804zM667.063 700.71H356.937c-6.827 0-12.19-5.364-12.19-12.19v-86.31c0-57.295 73.386-102.156 167.253-102.156s167.253 44.861 167.253 102.157v86.308c0 6.583-5.363 12.19-12.19 12.19zm-297.935-24.381h285.744V602.21c0-42.18-65.34-77.776-142.872-77.776S369.128 560.03 369.128 602.21v74.118z"/><path d="M430.811 700.709c-6.826 0-12.19-5.364-12.19-12.19v-50.713c0-6.827 5.364-12.19 12.19-12.19s12.19 5.363 12.19 12.19v50.712c0 6.583-5.363 12.19-12.19 12.19zm158.72 0c-6.826 0-12.19-5.364-12.19-12.19v-50.713c0-6.827 5.364-12.19 12.19-12.19s12.19 5.363 12.19 12.19v50.712c0 6.583-5.363 12.19-12.19 12.19zM512 638.049c-6.827 0-12.19-5.363-12.19-12.19v-66.804c0-6.826 5.363-12.19 12.19-12.19s12.19 5.364 12.19 12.19v66.804c0 6.827-5.363 12.19-12.19 12.19zm0-398.14c-6.827 0-12.19-5.364-12.19-12.19V75.092c0-6.826 5.363-12.19 12.19-12.19s12.19 5.364 12.19 12.19v152.381c0 6.827-5.363 12.435-12.19 12.435z"/><path d="M512 239.909c-6.827 0-12.19-5.364-12.19-12.19V75.092c0-6.826 5.363-12.19 12.19-12.19s12.19 5.364 12.19 12.19v152.381c0 6.827-5.363 12.435-12.19 12.435zm.488 721.188c-6.827 0-12.19-5.364-12.19-12.19V802.62c0-6.827 5.363-12.19 12.19-12.19s12.19 5.363 12.19 12.19v146.286c0 6.583-5.364 12.19-12.19 12.19z"/><path d="M512.488 961.097c-6.827 0-12.19-5.364-12.19-12.19V802.62c0-6.827 5.363-12.19 12.19-12.19s12.19 5.363 12.19 12.19v146.286c0 6.583-5.364 12.19-12.19 12.19zM948.907 522.24H796.526c-6.827 0-12.19-5.364-12.19-12.19s5.363-12.191 12.19-12.191h152.38c6.827 0 12.191 5.364 12.191 12.19s-5.607 12.191-12.19 12.191z"/><path d="M948.907 522.24H796.526c-6.827 0-12.19-5.364-12.19-12.19s5.363-12.191 12.19-12.191h152.38c6.827 0 12.191 5.364 12.191 12.19s-5.607 12.191-12.19 12.191zM221.379 522.728H75.093c-6.826 0-12.19-5.364-12.19-12.19s5.364-12.191 12.19-12.191H221.38c6.827 0 12.19 5.363 12.19 12.19s-5.363 12.19-12.19 12.19z"/><path d="M221.379 522.728H75.093c-6.826 0-12.19-5.364-12.19-12.19s5.364-12.191 12.19-12.191H221.38c6.827 0 12.19 5.363 12.19 12.19s-5.363 12.19-12.19 12.19zM99.474 414.476c-.975 0-1.95 0-2.925-.487a11.825 11.825 0 0 1-8.534-14.873C128 247.466 247.467 128 399.116 87.771c6.583-1.706 13.166 2.195 14.873 8.778a12.19 12.19 0 0 1-8.534 14.872 414.89 414.89 0 0 0-294.034 294.034c-1.463 5.364-6.34 9.021-11.947 9.021zm302.812 522.24c-.976 0-2.195 0-3.17-.487A439.662 439.662 0 0 1 87.771 624.884a12.19 12.19 0 0 1 8.534-14.873c6.583-1.706 13.165 2.195 14.872 8.778 38.034 143.36 150.674 256 294.034 294.034 6.583 1.707 10.484 8.29 8.534 14.872-1.22 5.364-6.095 9.021-11.46 9.021zm219.428 0a12.19 12.19 0 0 1-3.17-23.893c143.36-38.034 256-150.674 294.035-294.034 1.707-6.583 8.533-10.484 14.872-8.778 6.583 1.707 10.484 8.29 8.534 14.873A439.247 439.247 0 0 1 624.64 936.229a10.484 10.484 0 0 1-2.926.487zm302.812-522.24c-5.364 0-10.24-3.657-11.703-9.02A414.89 414.89 0 0 0 618.789 111.42a11.825 11.825 0 0 1-8.534-14.872c1.707-6.583 8.534-10.484 14.873-8.778a438.833 438.833 0 0 1 311.344 311.345 12.19 12.19 0 0 1-8.533 14.873c-1.463.487-2.438.487-3.413.487z"/><path d="M402.286 847.482c-1.22 0-2.682-.244-3.901-.732C255.025 797.99 158.476 663.406 158.476 512c0-6.827 5.364-12.19 12.19-12.19s12.191 5.363 12.191 12.19c0 141.166 89.722 266.484 223.33 311.832 6.339 2.195 9.752 9.021 7.558 15.36-1.707 5.12-6.34 8.29-11.46 8.29zM512 865.524c-6.827 0-12.19-5.364-12.19-12.19s5.363-12.191 12.19-12.191c141.166 0 266.484-89.722 311.832-223.33a12.069 12.069 0 1 1 22.918 7.802A352.939 352.939 0 0 1 512 865.524zM853.333 521.996c-6.583 0-12.19-5.364-12.19-12.19a328.728 328.728 0 0 0-223.33-309.638 12.069 12.069 0 1 1 7.802-22.918c142.629 48.274 239.177 182.125 239.909 332.556 0 6.826-5.364 12.19-12.19 12.19zM188.709 414.476c-1.22 0-2.682-.244-3.901-.731a12.069 12.069 0 0 1-7.558-15.36C226.01 255.025 360.594 158.476 512 158.476c6.827 0 12.19 5.364 12.19 12.19s-5.363 12.191-12.19 12.191c-141.166 0-266.484 89.722-311.832 223.33-1.707 5.12-6.34 8.29-11.46 8.29z"/></svg>