<svg class="icon" viewBox="0 0 1024 1024" xmlns="http://www.w3.org/2000/svg" width="400" height="400"><path d="M1.73 8.664h1014.774V1023.44H1.729V8.664z" fill="#718FEF"/><path d="M803.485 221.901H233.199c-17.498 0-31.682 14.293-31.682 31.924v510.687c0 17.622 14.184 31.899 31.682 31.899h570.286c17.498 0 31.682-14.277 31.682-31.899V253.826c0-17.632-14.184-31.925-31.682-31.925zm-63.369 478.764h-443.55V541.088l95.045-95.762L550.026 604.92l95.044-95.768 95.046 95.768v95.745zm-63.364-255.338c-34.996 0-63.361-28.576-63.361-63.832 0-35.268 28.365-63.834 63.36-63.834 34.997 0 63.365 28.566 63.365 63.834 0 35.256-28.368 63.832-63.364 63.832z" fill="#FFF"/></svg>