<svg class="icon" viewBox="0 0 1024 1024" xmlns="http://www.w3.org/2000/svg" width="400" height="400"><path d="M192.853 123.733h638.294V647.68H192.853z" fill="#EFCF48"/><path d="M120.32 992.427c0-162.987 174.933-294.4 391.68-294.4s391.68 132.266 391.68 294.4H120.32z" fill="#B3D3EF"/><path d="M418.987 619.52h186.026v168.107H418.987z" fill="#ECF1F2"/><path d="M512 702.293c33.28 0 64.853-11.946 93.013-31.573v-51.2C577.707 640 546.133 651.093 512 651.093s-64.853-11.946-93.013-31.573v51.2c28.16 20.48 59.733 31.573 93.013 31.573z" fill="#C7CAC7"/><path d="m562.492 823.834-50.688 50.688-50.688-50.688 50.688-50.688z" fill="#48A0DB"/><path d="M554.667 992.427h-82.774l23.894-133.12h34.133z" fill="#48A0DB"/><path d="M391.68 665.6 320 736.427 434.347 849.92l79.36-75.947z" fill="#B3D3EF"/><path d="M632.32 665.6 704 736.427 589.653 849.92l-79.36-75.947z" fill="#B3D3EF"/><path d="M262.187 390.414a68.267 39.253 71.761 1 0 74.562-24.571 68.267 39.253 71.761 1 0-74.562 24.57zM702.647 442.695a39.253 68.267 18.239 1 0 42.732-129.673 39.253 68.267 18.239 1 0-42.732 129.673z" fill="#ECF1F2"/><path d="M312.32 372.907a279.04 199.68 90 1 0 399.36 0 279.04 199.68 90 1 0-399.36 0z" fill="#FFF"/><path d="M713.387 370.347c-4.267-59.734-14.507-86.187-49.494-135.68-40.106-57.174-72.533-21.334-120.32 14.506-60.586 46.08-125.44-5.973-163.84-9.386-36.693-3.414-29.866 21.333-66.56 130.56 0 14.506.854 29.866 2.56 43.52 33.28-102.4 28.16-126.294 64-122.88 38.4 3.413 103.254 55.466 163.84 9.386 47.787-35.84 80.214-71.68 120.32-14.506 31.574 44.373 42.667 70.826 47.787 119.466 1.707-11.946 1.707-23.893 1.707-34.986z" fill="#C7CAC7"/><path d="M616.107 70.827C510.293-32.427 187.733 69.12 312.32 372.907c35.84-109.227 29.013-133.974 66.56-130.56 38.4 3.413 103.253 55.466 163.84 9.386 47.787-35.84 80.213-71.68 120.32-14.506 34.987 49.493 44.373 75.946 49.493 135.68 56.32-52.054 65.707-279.04-96.426-302.08z" fill="#424B61"/><path d="M192.853 351.573h638.294v68.267H192.853z" fill="#ECF1F2"/><path d="M248.32 351.573h17.067c1.706-15.36 7.68-26.453 15.36-29.866 1.706-.854 2.56-.854 4.266-.854 2.56 9.387 5.974 19.627 9.387 29.867h33.28l5.12-15.36c3.413-11.947 6.827-22.187 9.387-31.573 14.506-52.054 17.066-55.467 35.84-53.76 9.386.853 22.186 5.973 35.84 11.093 36.693 13.653 86.186 32.427 133.973-3.413 5.12-3.414 10.24-7.68 14.507-11.094 23.893-17.92 43.52-34.133 61.44-31.573 11.093 1.707 21.333 10.24 32.426 25.6 23.894 34.133 34.987 56.32 41.814 86.187 1.706 7.68 2.56 15.36 3.413 23.893h35.84c4.267-7.68 7.68-17.067 10.24-26.453 5.973 5.12 9.387 14.506 10.24 26.453h17.067c-1.707-20.48-9.387-37.547-23.04-44.373 8.533-40.107 7.68-87.894-5.12-128.854-19.627-64-64-104.96-126.294-115.2-58.026-53.76-169.813-52.906-251.733 2.56-39.253 26.454-116.053 98.134-87.04 239.787-1.707 0-4.267.853-5.973 1.707-16.214 4.266-25.6 22.186-27.307 45.226zM378.027 78.507c75.093-50.347 180.906-51.2 232.106-1.707 1.707.853 2.56 1.707 5.12 2.56 72.534 10.24 103.254 62.293 116.054 104.107 12.8 40.96 12.8 85.333 5.12 121.173-1.707 6.827-3.414 12.8-5.12 18.773-3.414 9.387-6.827 18.774-11.094 25.6 0 .854-.853 1.707-.853 2.56l-2.56-17.92c-.853-6.826-2.56-12.8-4.267-18.773-5.973-21.333-14.506-40.107-28.16-62.293-4.266-5.974-8.533-12.8-13.653-19.627-13.653-19.627-28.16-30.72-43.52-33.28-2.56 0-4.267-.853-6.827-.853-22.186 0-43.52 16.213-67.413 34.986-4.267 3.414-9.387 7.68-14.507 11.094-40.106 29.866-81.066 14.506-116.906.853-14.507-5.12-28.16-11.093-40.107-11.947-23.04-1.706-32.427 5.974-40.96 25.6-4.267 10.24-7.68 23.04-12.8 40.107-1.707 5.973-3.413 12.8-5.973 20.48-1.707 5.973-3.414 12.8-5.974 19.627l-2.56 7.68-5.12-15.36c0-.854 0-.854-.853-1.707-2.56-7.68-4.267-15.36-5.973-23.04-31.574-135.68 40.96-203.947 76.8-228.693zm329.386 649.386-68.266-68.266c-3.414-3.414-8.534-3.414-11.947 0l-13.653 11.946v-48.64c46.933-36.693 83.626-97.28 98.986-170.666 16.214-.854 33.28-12.8 45.227-33.28h-21.333c-6.827 7.68-14.507 12.8-21.334 15.36.854-5.12 1.707-10.24 1.707-15.36h-17.067c0 4.266 0 7.68-.853 11.093-.853 5.973-1.707 12.8-3.413 18.773-14.507 69.974-48.64 128-93.867 162.134-8.533 6.826-17.92 12.8-27.307 17.066-19.626 9.387-40.96 14.507-62.293 14.507-22.187 0-42.667-5.12-62.293-14.507-9.387-4.266-18.774-10.24-27.307-17.066-44.373-34.134-78.507-92.16-93.013-162.134-1.707-5.973-2.56-11.946-3.414-18.773-1.706-3.413-1.706-6.827-2.56-10.24h-17.066c.853 5.12 1.706 10.24 1.706 15.36-6.826-1.707-14.506-6.827-21.333-15.36h-21.333c12.8 19.627 29.013 32.427 45.226 33.28 15.36 73.387 51.2 133.973 98.987 170.667v47.786l-13.653-11.946c-3.414-3.414-8.534-2.56-11.947 0l-68.267 68.266c-122.026 52.054-204.8 151.04-204.8 264.534 0 5.12 3.414 8.533 8.534 8.533H903.68c5.12 0 8.533-3.413 8.533-8.533 0-113.494-82.773-212.48-204.8-264.534zm-98.986-29.866 5.12-4.267 18.773-17.067 35.84 35.84 23.04 23.04-2.56 2.56-98.987 99.84-19.626-18.773-.854-.853-45.226-45.227 68.266-60.587 4.267-3.413 11.947-11.093zM550.4 824.32l-25.6 25.6h-24.747l-25.6-25.6 29.867-28.16 8.533-8.533 8.534 8.533 29.013 28.16zM427.52 634.88c25.6 16.213 54.613 24.747 84.48 24.747s58.88-8.534 84.48-24.747v51.2l-9.387 8.533-17.066 15.36-58.027 51.2-58.027-51.2-17.066-15.36-9.387-8.533v-51.2zm-71.68 78.507 35.84-35.84 18.773 17.066 5.12 4.267 11.947 11.093 4.267 3.414 68.266 60.586-45.226 45.227-.854.853-20.48 19.627-98.986-100.693-2.56-2.56 23.893-23.04zm109.227 270.506H128.853c4.267-101.546 78.507-189.44 188.587-238.08l110.933 110.934c1.707 1.706 4.267 2.56 5.974 2.56 1.706 0 4.266-.854 5.973-2.56l21.333-20.48 25.6 25.6-22.186 122.026zm17.066 0 19.627-107.52 1.707-9.386h19.626l1.707 6.826 19.627 109.227h-62.294zm79.36 0L539.307 860.16l23.893-23.893 21.333 20.48c1.707 1.706 3.414 2.56 5.974 2.56s4.266-.854 5.973-2.56l110.933-110.934c110.08 48.64 184.32 136.534 188.587 238.08H561.493z"/><path d="M144.213 220.16c5.12 0 8.534-3.413 8.534-8.533v-128h128c5.12 0 8.533-3.414 8.533-8.534s-3.413-8.533-8.533-8.533H144.213c-5.12 0-8.533 3.413-8.533 8.533v136.534c0 5.12 3.413 8.533 8.533 8.533zm735.574-153.6H743.253c-5.12 0-8.533 3.413-8.533 8.533s3.413 8.534 8.533 8.534h128v128c0 5.12 3.414 8.533 8.534 8.533s8.533-3.413 8.533-8.533V75.093c0-4.266-3.413-8.533-8.533-8.533zm0 483.84c-5.12 0-8.534 3.413-8.534 8.533v128h-128c-5.12 0-8.533 3.414-8.533 8.534s3.413 8.533 8.533 8.533h136.534c5.12 0 8.533-3.413 8.533-8.533V558.933c0-4.266-3.413-8.533-8.533-8.533zm-599.04 136.533h-128v-128c0-5.12-3.414-8.533-8.534-8.533s-8.533 3.413-8.533 8.533v136.534c0 5.12 3.413 8.533 8.533 8.533h136.534c5.12 0 8.533-3.413 8.533-8.533s-4.267-8.534-8.533-8.534zM136.533 385.707c0 5.12 3.414 8.533 8.534 8.533h733.866c5.12 0 8.534-3.413 8.534-8.533s-3.414-8.534-8.534-8.534H145.067c-5.12 0-8.534 3.414-8.534 8.534z"/></svg>